<svg xmlns="http://www.w3.org/2000/svg"
aria-label="Behance" role="img"
viewBox="0 0 146 146"><rect
height="146" width="146"
rx="15%"
fill="#0077ff"/><path fill="#fff" d="M49 66l-17 0 0 -13 17 0c4,0 7,3 7,7 0,3 -3,6 -7,6l0 0zm24 21c0,-8 -5,-14 -11,-16 4,-3 8,-9 8,-15 0,-9 -8,-17 -17,-17l-34 0 0 68 34 0c11,0 20,-9 20,-20l0 0zm17 -4l38 0c0,0 0,-1 0,-1 0,-14 -11,-26 -26,-26 -15,0 -25,12 -25,26 0,14 10,25 25,25 15,0 23,-9 25,-20l-14 0c-1,6 -5,10 -11,10 -6,0 -11,-6 -12,-14l0 0zm23 -6l-22 0c1,-7 5,-11 11,-11 6,0 10,5 11,11l0 0zm-26 -34l30 0 0 10 -30 0 0 -10zm-55 34l17 0c4,0 11,1 11,8 0,4 -3,9 -7,9l-21 0 0 -17z"/></svg>
